<svg width="45" height="27" viewBox="0 0 45 27" fill="none" xmlns="http://www.w3.org/2000/svg">
<path d="M28.143 24.1254H16.3652V2.95874H28.143V24.1254Z" fill="#FF5F00"/>
<path d="M17.12 13.5402C17.12 9.24641 19.1304 5.42165 22.261 2.95683C19.9717 1.15442 17.0823 0.0786322 13.9422 0.0786322C6.50841 0.0786322 0.482422 6.10547 0.482422 13.5402C0.482422 20.9749 6.50841 27.0017 13.9422 27.0017C17.0823 27.0017 19.9717 25.9259 22.261 24.1235C19.1304 21.6587 17.12 17.8339 17.12 13.5402Z" fill="#EB001B"/>
<path d="M44.0275 13.5402C44.0275 20.9749 38.0015 27.0017 30.5677 27.0017C27.4276 27.0017 24.5383 25.9259 22.248 24.1235C25.3796 21.6587 27.3899 17.8339 27.3899 13.5402C27.3899 9.24641 25.3796 5.42165 22.248 2.95683C24.5383 1.15442 27.4276 0.0786322 30.5677 0.0786322C38.0015 0.0786322 44.0275 6.10547 44.0275 13.5402Z" fill="#F79E1B"/>
<path d="M10.611 13.6255C10.611 13.0375 10.9963 12.5545 11.6259 12.5545C12.2275 12.5545 12.6337 13.0167 12.6337 13.6255C12.6337 14.2344 12.2275 14.6966 11.6259 14.6966C10.9963 14.6966 10.611 14.2135 10.611 13.6255ZM13.3194 13.6255V11.9529H12.592V12.359C12.3613 12.0578 12.0113 11.8688 11.5354 11.8688C10.5973 11.8688 9.86194 12.6042 9.86194 13.6255C9.86194 14.6477 10.5973 15.3823 11.5354 15.3823C12.0113 15.3823 12.3613 15.1933 12.592 14.8921V15.2982H13.3194V13.6255ZM37.8999 13.6255C37.8999 13.0375 38.2852 12.5545 38.9149 12.5545C39.5173 12.5545 39.9227 13.0167 39.9227 13.6255C39.9227 14.2344 39.5173 14.6966 38.9149 14.6966C38.2852 14.6966 37.8999 14.2135 37.8999 13.6255ZM40.6092 13.6255V10.6095H39.881V12.359C39.6503 12.0578 39.3002 11.8688 38.8244 11.8688C37.8863 11.8688 37.1509 12.6042 37.1509 13.6255C37.1509 14.6477 37.8863 15.3823 38.8244 15.3823C39.3002 15.3823 39.6503 15.1933 39.881 14.8921V15.2982H40.6092V13.6255ZM22.3485 12.52C22.8171 12.52 23.1183 12.814 23.1952 13.3315H21.4592C21.537 12.8485 21.8302 12.52 22.3485 12.52ZM22.3629 11.8688C21.3823 11.8688 20.6966 12.5825 20.6966 13.6255C20.6966 14.6894 21.4104 15.3823 22.4117 15.3823C22.9156 15.3823 23.377 15.2566 23.7832 14.9137L23.4267 14.3746C23.1463 14.5981 22.789 14.7246 22.4534 14.7246C21.9848 14.7246 21.5578 14.5075 21.4528 13.9051H23.937C23.9442 13.8146 23.9514 13.7233 23.9514 13.6255C23.9442 12.5825 23.3001 11.8688 22.3629 11.8688ZM31.146 13.6255C31.146 13.0375 31.5313 12.5545 32.1609 12.5545C32.7626 12.5545 33.1687 13.0167 33.1687 13.6255C33.1687 14.2344 32.7626 14.6966 32.1609 14.6966C31.5313 14.6966 31.146 14.2135 31.146 13.6255ZM33.8544 13.6255V11.9529H33.1271V12.359C32.8955 12.0578 32.5463 11.8688 32.0704 11.8688C31.1323 11.8688 30.397 12.6042 30.397 13.6255C30.397 14.6477 31.1323 15.3823 32.0704 15.3823C32.5463 15.3823 32.8955 15.1933 33.1271 14.8921V15.2982H33.8544V13.6255ZM27.038 13.6255C27.038 14.6405 27.7446 15.3823 28.8228 15.3823C29.3267 15.3823 29.6624 15.2702 30.0261 14.9834L29.6768 14.3954C29.4036 14.5917 29.1168 14.6966 28.8012 14.6966C28.2204 14.6894 27.7934 14.2696 27.7934 13.6255C27.7934 12.9815 28.2204 12.5617 28.8012 12.5545C29.1168 12.5545 29.4036 12.6594 29.6768 12.8557L30.0261 12.2677C29.6624 11.9809 29.3267 11.8688 28.8228 11.8688C27.7446 11.8688 27.038 12.6106 27.038 13.6255ZM36.4163 11.8688C35.9965 11.8688 35.7234 12.065 35.5343 12.359V11.9529H34.8133V15.2982H35.5415V13.4229C35.5415 12.8693 35.7794 12.5617 36.2553 12.5617C36.4027 12.5617 36.5565 12.5825 36.7103 12.6458L36.9346 11.9601C36.7736 11.8968 36.5637 11.8688 36.4163 11.8688ZM16.9171 12.2188C16.567 11.9881 16.0848 11.8688 15.5528 11.8688C14.7053 11.8688 14.1598 12.2749 14.1598 12.9398C14.1598 13.4854 14.5659 13.8218 15.3141 13.9268L15.6578 13.9756C16.0567 14.0317 16.245 14.1366 16.245 14.3257C16.245 14.5844 15.979 14.7318 15.4824 14.7318C14.9785 14.7318 14.6148 14.5708 14.3696 14.3818L14.0268 14.9481C14.4257 15.2421 14.9296 15.3823 15.4751 15.3823C16.4413 15.3823 17.0012 14.9273 17.0012 14.2904C17.0012 13.7024 16.5606 13.3948 15.8324 13.2899L15.4896 13.2402C15.1747 13.1986 14.9224 13.1361 14.9224 12.9118C14.9224 12.6666 15.1603 12.52 15.5593 12.52C15.9862 12.52 16.3996 12.6811 16.6023 12.8068L16.9171 12.2188ZM26.3026 11.8688C25.8828 11.8688 25.6097 12.065 25.4214 12.359V11.9529H24.7004V15.2982H25.4278V13.4229C25.4278 12.8693 25.6657 12.5617 26.1416 12.5617C26.289 12.5617 26.4428 12.5825 26.5966 12.6458L26.8209 11.9601C26.6599 11.8968 26.45 11.8688 26.3026 11.8688ZM20.095 11.9529H18.9054V10.9379H18.17V11.9529H17.4915V12.6178H18.17V14.1438C18.17 14.9201 18.4712 15.3823 19.3316 15.3823C19.6472 15.3823 20.0109 15.2846 20.2416 15.1236L20.0317 14.5003C19.8146 14.6261 19.5767 14.6894 19.3876 14.6894C19.024 14.6894 18.9054 14.4651 18.9054 14.1294V12.6178H20.095V11.9529ZM9.21867 15.2982V13.1986C9.21867 12.4079 8.71479 11.876 7.90249 11.8688C7.47551 11.8616 7.03491 11.9945 6.7265 12.464C6.49578 12.0931 6.13209 11.8688 5.621 11.8688C5.26372 11.8688 4.91444 11.9737 4.64127 12.3654V11.9529H3.91309V15.2982H4.64768V13.4437C4.64768 12.8629 4.96972 12.5545 5.46719 12.5545C5.95024 12.5545 6.19458 12.8693 6.19458 13.4365V15.2982H6.92997V13.4437C6.92997 12.8629 7.26562 12.5545 7.74868 12.5545C8.24535 12.5545 8.48327 12.8693 8.48327 13.4365V15.2982H9.21867Z" fill="white"/>
</svg>
