<svg width="37" height="33" viewBox="0 0 37 33" fill="none" xmlns="http://www.w3.org/2000/svg">
<path d="M4.9443 23.134H2.15414C1.9632 23.134 1.80083 23.2727 1.77104 23.4612L0.642578 30.6159C0.620139 30.7571 0.729477 30.8844 0.872677 30.8844H2.20473C2.39566 30.8844 2.55804 30.7457 2.58782 30.5568L2.89217 28.6271C2.92154 28.4382 3.08433 28.2994 3.27485 28.2994H4.15813C5.99607 28.2994 7.05681 27.4101 7.33383 25.6476C7.45867 24.8765 7.33913 24.2707 6.97807 23.8464C6.58151 23.3805 5.87816 23.134 4.9443 23.134ZM5.26619 25.7471C5.11361 26.7483 4.34865 26.7483 3.60899 26.7483H3.18795L3.48333 24.8785C3.50087 24.7655 3.59879 24.6823 3.71302 24.6823H3.90599C4.40985 24.6823 4.88514 24.6823 5.13074 24.9695C5.27721 25.1409 5.32209 25.3955 5.26619 25.7471Z" fill="#253B80"/>
<path d="M13.2854 25.7148H11.9493C11.8354 25.7148 11.7371 25.798 11.7196 25.911L11.6604 26.2847L11.567 26.1493C11.2777 25.7295 10.6327 25.5891 9.98893 25.5891C8.51245 25.5891 7.25139 26.7074 7.00579 28.2761C6.87809 29.0586 7.05964 29.8068 7.50352 30.3286C7.91069 30.8084 8.49328 31.0083 9.18643 31.0083C10.3761 31.0083 11.0358 30.2433 11.0358 30.2433L10.9762 30.6146C10.9538 30.7566 11.0631 30.8839 11.2055 30.8839H12.4091C12.6004 30.8839 12.762 30.7451 12.7921 30.5562L13.5143 25.9832C13.5371 25.8425 13.4282 25.7148 13.2854 25.7148ZM11.423 28.3152C11.294 29.0785 10.6882 29.591 9.91549 29.591C9.5275 29.591 9.21744 29.4665 9.01835 29.2307C8.82088 28.9965 8.74582 28.6632 8.80865 28.292C8.929 27.5352 9.54505 27.006 10.3059 27.006C10.6853 27.006 10.9938 27.1321 11.1969 27.3699C11.4005 27.6102 11.4813 27.9456 11.423 28.3152Z" fill="#253B80"/>
<path d="M20.4 25.7146H19.0573C18.9292 25.7146 18.8089 25.7782 18.7363 25.8847L16.8844 28.6125L16.0995 25.9912C16.0501 25.8272 15.8988 25.7146 15.7274 25.7146H14.408C14.2477 25.7146 14.1363 25.8713 14.1873 26.0222L15.6662 30.3623L14.2758 32.3251C14.1665 32.4797 14.2766 32.6923 14.4655 32.6923H15.8066C15.9339 32.6923 16.053 32.6302 16.1252 32.5258L20.5909 26.0797C20.6978 25.9255 20.5881 25.7146 20.4 25.7146Z" fill="#253B80"/>
<path d="M24.8466 23.1338H22.0561C21.8655 23.1338 21.7032 23.2725 21.6734 23.461L20.5449 30.6157C20.5225 30.7569 20.6318 30.8842 20.7742 30.8842H22.2062C22.3392 30.8842 22.453 30.7871 22.4738 30.6549L22.7941 28.6268C22.8235 28.4379 22.9863 28.2992 23.1768 28.2992H24.0597C25.898 28.2992 26.9583 27.4098 27.2358 25.6473C27.361 24.8763 27.2407 24.2704 26.8796 23.8461C26.4835 23.3802 25.7805 23.1338 24.8466 23.1338ZM25.1685 25.7469C25.0164 26.7481 24.2514 26.7481 23.5113 26.7481H23.0907L23.3865 24.8783C23.404 24.7653 23.5011 24.6821 23.6158 24.6821H23.8087C24.3122 24.6821 24.7879 24.6821 25.0335 24.9693C25.18 25.1406 25.2244 25.3952 25.1685 25.7469Z" fill="#179BD7"/>
<path d="M33.187 25.7148H31.8517C31.737 25.7148 31.6395 25.798 31.6224 25.911L31.5632 26.2847L31.4694 26.1493C31.1801 25.7295 30.5355 25.5891 29.8917 25.5891C28.4153 25.5891 27.1546 26.7074 26.909 28.2761C26.7817 29.0586 26.9624 29.8068 27.4063 30.3286C27.8143 30.8084 28.3961 31.0083 29.0892 31.0083C30.2789 31.0083 30.9386 30.2433 30.9386 30.2433L30.879 30.6146C30.8566 30.7566 30.9659 30.8839 31.1091 30.8839H32.3123C32.5028 30.8839 32.6652 30.7451 32.6949 30.5562L33.4175 25.9832C33.4395 25.8425 33.3302 25.7148 33.187 25.7148ZM31.3245 28.3152C31.1964 29.0785 30.5898 29.591 29.8171 29.591C29.4299 29.591 29.119 29.4665 28.9199 29.2307C28.7225 28.9965 28.6482 28.6632 28.7102 28.292C28.8314 27.5352 29.4466 27.006 30.2075 27.006C30.5869 27.006 30.8954 27.1321 31.0985 27.3699C31.3029 27.6102 31.3837 27.9456 31.3245 28.3152Z" fill="#179BD7"/>
<path d="M34.7604 23.3299L33.6152 30.6156C33.5928 30.7568 33.7021 30.8841 33.8445 30.8841H34.9958C35.1872 30.8841 35.3495 30.7454 35.3789 30.5565L36.5082 23.4022C36.5306 23.261 36.4213 23.1333 36.2789 23.1333H34.9897C34.8759 23.1337 34.778 23.2169 34.7604 23.3299Z" fill="#179BD7"/>
<path d="M15.9749 17.9087L16.2893 15.9119L15.589 15.8956H12.2451L14.5689 1.16109C14.5761 1.11661 14.5996 1.07514 14.6339 1.04568C14.6681 1.01623 14.712 1 14.7577 1H20.3959C22.2677 1 23.5594 1.38951 24.2339 2.1583C24.55 2.51896 24.7514 2.89584 24.8488 3.31059C24.951 3.74578 24.9528 4.26572 24.853 4.89988L24.8458 4.94616V5.3525L25.162 5.53162C25.4282 5.67288 25.6398 5.83457 25.8021 6.01971C26.0726 6.32807 26.2475 6.71998 26.3215 7.18462C26.3978 7.66249 26.3725 8.23112 26.2475 8.87489C26.1033 9.61543 25.87 10.2604 25.5551 10.7882C25.2653 11.2744 24.8963 11.6778 24.4581 11.9903C24.0397 12.2873 23.5426 12.5127 22.9806 12.6569C22.436 12.7988 21.8151 12.8703 21.134 12.8703H20.6952C20.3815 12.8703 20.0767 12.9833 19.8375 13.1859C19.5977 13.3927 19.439 13.6752 19.3903 13.9842L19.3572 14.1639L18.8018 17.6833L18.7766 17.8125C18.77 17.8534 18.7585 17.8738 18.7417 17.8876C18.7267 17.9003 18.705 17.9087 18.684 17.9087H15.9749Z" fill="#253B80"/>
<path d="M25.4613 4.99316C25.4445 5.10076 25.4253 5.21076 25.4036 5.32376C24.6601 9.14129 22.1163 10.4601 18.8674 10.4601H17.2132C16.8158 10.4601 16.481 10.7486 16.4191 11.1405L15.5722 16.5119L15.3324 18.0344C15.2921 18.2917 15.4904 18.5237 15.7501 18.5237H18.684C19.0315 18.5237 19.3266 18.2713 19.3813 17.9286L19.4102 17.7796L19.9626 14.274L19.998 14.0817C20.0521 13.7378 20.3479 13.4854 20.6953 13.4854H21.1341C23.9766 13.4854 26.2019 12.3313 26.8523 8.99162C27.124 7.59649 26.9833 6.43157 26.2644 5.61229C26.0468 5.36524 25.7769 5.16027 25.4613 4.99316Z" fill="#179BD7"/>
<path d="M24.6833 4.6829C24.5697 4.64984 24.4525 4.61979 24.3323 4.59274C24.2115 4.56629 24.0877 4.54285 23.9602 4.52241C23.5142 4.45028 23.0255 4.41602 22.502 4.41602H18.0828C17.974 4.41602 17.8706 4.44066 17.778 4.48514C17.5742 4.58312 17.4228 4.77607 17.3861 5.0123L16.446 10.9667L16.4189 11.1404C16.4809 10.7485 16.8157 10.46 17.213 10.46H18.8672C22.1161 10.46 24.6599 9.14059 25.4034 5.32366C25.4257 5.21066 25.4443 5.10066 25.4612 4.99306C25.273 4.89328 25.0692 4.80793 24.8498 4.73519C24.7957 4.71716 24.7398 4.69973 24.6833 4.6829Z" fill="#222D65"/>
<path d="M17.3873 5.01232C17.4239 4.77609 17.5754 4.58314 17.7792 4.48576C17.8724 4.44128 17.9751 4.41664 18.0839 4.41664H22.5032C23.0267 4.41664 23.5154 4.4509 23.9614 4.52303C24.0888 4.54347 24.2127 4.56691 24.3335 4.59336C24.4537 4.62041 24.5709 4.65046 24.6845 4.68352C24.741 4.70035 24.7969 4.71778 24.8516 4.73521C25.071 4.80795 25.2748 4.8939 25.4629 4.99308C25.6841 3.58232 25.4611 2.62178 24.6983 1.752C23.8574 0.794465 22.3397 0.384521 20.3975 0.384521H14.7593C14.3626 0.384521 14.0242 0.673045 13.9629 1.06556L11.6144 15.9516C11.5681 16.2461 11.7953 16.5118 12.0923 16.5118H15.5732L16.4472 10.9667L17.3873 5.01232Z" fill="#253B80"/>
</svg>
