<svg width="52" height="22" viewBox="0 0 52 22" fill="none" xmlns="http://www.w3.org/2000/svg">
<path d="M9.42392 2.72151C8.82439 3.43306 7.86515 3.99428 6.9059 3.91411C6.786 2.95202 7.25563 1.9298 7.8052 1.29842C8.40472 0.566834 9.4539 0.0457023 10.3032 0.00561523C10.4032 1.00779 10.0135 1.98993 9.42392 2.72151ZM10.2932 4.10452C8.90433 4.02434 7.71527 4.89624 7.05579 4.89624C6.38631 4.89624 5.37711 4.14461 4.27797 4.16465C2.8491 4.18469 1.52015 4.99646 0.790721 6.28927C-0.708098 8.87488 0.401028 12.7032 1.84989 14.8078C2.55933 15.85 3.40866 16.9925 4.52778 16.9524C5.58694 16.9123 6.00661 16.2609 7.28561 16.2609C8.57459 16.2609 8.9443 16.9524 10.0634 16.9324C11.2225 16.9123 11.9519 15.8901 12.6614 14.8479C13.4707 13.6653 13.8005 12.5128 13.8205 12.4527C13.8005 12.4326 11.5822 11.5808 11.5622 9.01519C11.5423 6.87053 13.3109 5.84831 13.3908 5.78818C12.3916 4.30495 10.8328 4.14461 10.2932 4.10452ZM18.3169 1.19821V16.8221H20.735V11.4805H24.0824C27.14 11.4805 29.2883 9.37597 29.2883 6.32935C29.2883 3.28273 27.1799 1.19821 24.1623 1.19821H18.3169ZM20.735 3.24265H23.5228C25.6212 3.24265 26.8202 4.36509 26.8202 6.33937C26.8202 8.31366 25.6212 9.44612 23.5128 9.44612H20.735V3.24265ZM33.7048 16.9424C35.2236 16.9424 36.6325 16.1707 37.272 14.9481H37.3219V16.8221H39.5602V9.04525C39.5602 6.79035 37.7616 5.3372 34.9938 5.3372C32.4258 5.3372 30.5273 6.8104 30.4574 8.83479H32.6356C32.8155 7.8727 33.7048 7.24133 34.9238 7.24133C36.4027 7.24133 37.232 7.93284 37.232 9.2056V10.0675L34.2144 10.2479C31.4066 10.4182 29.8878 11.5707 29.8878 13.5751C29.8878 15.5995 31.4566 16.9424 33.7048 16.9424ZM34.3543 15.0884C33.0653 15.0884 32.2459 14.467 32.2459 13.515C32.2459 12.5328 33.0353 11.9616 34.5441 11.8714L37.232 11.701V12.5829C37.232 14.0461 35.993 15.0884 34.3543 15.0884ZM42.5478 21.0714C44.906 21.0714 46.0151 20.1694 46.9843 17.4335L51.231 5.48752H48.7729L45.9252 14.7176H45.8752L43.0275 5.48752H40.4994L44.5962 16.8622L44.3764 17.5537C44.0067 18.7263 43.4072 19.1773 42.338 19.1773C42.1481 19.1773 41.7784 19.1572 41.6286 19.1372V21.0112C41.7684 21.0513 42.368 21.0714 42.5478 21.0714Z" fill="#888888"/>
</svg>
