<svg width="124" height="24" viewBox="0 0 124 24" fill="none" xmlns="http://www.w3.org/2000/svg">
<path d="M97 10.0999C97.1 9.59994 96.7 8.99994 96.2 8.99994L90.5 8.19994L87.9 2.99994C87.8 2.79994 87.7 2.69994 87.5 2.59994C87 2.29994 86.4 2.49994 86.1 2.99994L83.6 8.19994L77.9 8.99994C77.6 8.99994 77.4 9.09994 77.3 9.29994C76.9 9.69994 76.9 10.2999 77.3 10.6999L81.4 14.6999L80.4 20.3999C80.4 20.5999 80.4 20.7999 80.5 20.9999C80.8 21.4999 81.4 21.6999 81.9 21.3999L87 18.6999L92.1 21.3999C92.2 21.4999 92.4 21.4999 92.6 21.4999C92.7 21.4999 92.7 21.4999 92.8 21.4999C93.3 21.3999 93.7 20.8999 93.6 20.2999L92.6 14.5999L96.7 10.5999C96.9 10.4999 97 10.2999 97 10.0999Z" fill="#FFCF55"/>
<path d="M72 10.0999C72.1 9.59994 71.7 8.99994 71.2 8.99994L65.5 8.19994L62.9 2.99994C62.8 2.79994 62.7 2.69994 62.5 2.59994C62 2.29994 61.4 2.49994 61.1 2.99994L58.6 8.19994L52.9 8.99994C52.6 8.99994 52.4 9.09994 52.3 9.29994C51.9 9.69994 51.9 10.2999 52.3 10.6999L56.4 14.6999L55.4 20.3999C55.4 20.5999 55.4 20.7999 55.5 20.9999C55.8 21.4999 56.4 21.6999 56.9 21.3999L62 18.6999L67.1 21.3999C67.2 21.4999 67.4 21.4999 67.6 21.4999C67.7 21.4999 67.7 21.4999 67.8 21.4999C68.3 21.3999 68.7 20.8999 68.6 20.2999L67.6 14.5999L71.7 10.5999C71.9 10.4999 72 10.2999 72 10.0999Z" fill="#FFCF55"/>
<path d="M47 10.0999C47.1 9.59994 46.7 8.99994 46.2 8.99994L40.5 8.19994L37.9 2.99994C37.8 2.79994 37.7 2.69994 37.5 2.59994C37 2.29994 36.4 2.49994 36.1 2.99994L33.6 8.19994L27.9 8.99994C27.6 8.99994 27.4 9.09994 27.3 9.29994C26.9 9.69994 26.9 10.2999 27.3 10.6999L31.4 14.6999L30.4 20.3999C30.4 20.5999 30.4 20.7999 30.5 20.9999C30.8 21.4999 31.4 21.6999 31.9 21.3999L37 18.6999L42.1 21.3999C42.2 21.4999 42.4 21.4999 42.6 21.4999C42.7 21.4999 42.7 21.4999 42.8 21.4999C43.3 21.3999 43.7 20.8999 43.6 20.2999L42.6 14.5999L46.7 10.5999C46.9 10.4999 47 10.2999 47 10.0999Z" fill="#FFCF55"/>
<path d="M22 10.0999C22.1 9.59994 21.7 8.99994 21.2 8.99994L15.5 8.19994L12.9 2.99994C12.8 2.79994 12.7 2.69994 12.5 2.59994C12 2.29994 11.4 2.49994 11.1 2.99994L8.6 8.19994L2.9 8.99994C2.6 8.99994 2.4 9.09994 2.3 9.29994C1.9 9.69994 1.9 10.2999 2.3 10.6999L6.4 14.6999L5.4 20.3999C5.4 20.5999 5.4 20.7999 5.5 20.9999C5.8 21.4999 6.4 21.6999 6.9 21.3999L12 18.6999L17.1 21.3999C17.2 21.4999 17.4 21.4999 17.6 21.4999C17.7 21.4999 17.7 21.4999 17.8 21.4999C18.3 21.3999 18.7 20.8999 18.6 20.2999L17.6 14.5999L21.7 10.5999C21.9 10.4999 22 10.2999 22 10.0999Z" fill="#FFCF55"/>
<path d="M122 10.0999C122.1 9.59994 121.7 8.99994 121.2 8.99994L115.5 8.19994L112.9 2.99994C112.8 2.79994 112.7 2.69994 112.5 2.59994C112 2.29994 111.4 2.49994 111.1 2.99994L108.6 8.19994L102.9 8.99994C102.6 8.99994 102.4 9.09994 102.3 9.29994C101.9 9.69994 101.9 10.2999 102.3 10.6999L106.4 14.6999L105.4 20.3999C105.4 20.5999 105.4 20.7999 105.5 20.9999C105.8 21.4999 106.4 21.6999 106.9 21.3999L112 18.6999L117.1 21.3999C117.2 21.4999 117.4 21.4999 117.6 21.4999C117.7 21.4999 117.7 21.4999 117.8 21.4999C118.3 21.3999 118.7 20.8999 118.6 20.2999L117.6 14.5999L121.7 10.5999C121.9 10.4999 122 10.2999 122 10.0999ZM115.8 13.5999C115.6 13.7999 115.5 14.1999 115.5 14.4999L116.2 18.6999L112.4 16.6999C112.3 16.5999 112.1 16.5999 111.9 16.5999V5.69994L113.8 9.49994C113.9 9.79994 114.2 9.99994 114.6 9.99994L118.8 10.5999L115.8 13.5999Z" fill="#FFCF55"/>
</svg>
