<svg width="14" height="14" viewBox="0 0 14 14" fill="none" xmlns="http://www.w3.org/2000/svg">
<path d="M13.6667 5.73337C13.7333 5.40004 13.4667 5.00004 13.1333 5.00004L9.33334 4.46671L7.6 1.00004C7.53334 0.866707 7.46667 0.80004 7.33334 0.733374C7 0.533374 6.6 0.666707 6.4 1.00004L4.73334 4.46671L0.933336 5.00004C0.733336 5.00004 0.600003 5.06671 0.533336 5.20004C0.266669 5.46671 0.266669 5.86671 0.533336 6.13337L3.26667 8.80004L2.6 12.6C2.6 12.7334 2.6 12.8667 2.66667 13C2.86667 13.3334 3.26667 13.4667 3.6 13.2667L7 11.4667L10.4 13.2667C10.4667 13.3334 10.6 13.3334 10.7333 13.3334C10.8 13.3334 10.8 13.3334 10.8667 13.3334C11.2 13.2667 11.4667 12.9334 11.4 12.5334L10.7333 8.73337L13.4667 6.06671C13.6 6.00004 13.6667 5.86671 13.6667 5.73337Z" fill="#FFCF55"/>
</svg>
