<svg width="52" height="17" viewBox="0 0 52 17" fill="none" xmlns="http://www.w3.org/2000/svg">
<path d="M22.551 15.9902H18.4072L20.9991 1.13477H25.1427L22.551 15.9902Z" fill="#00579F"/>
<path d="M37.5729 1.49794C36.7556 1.19736 35.4592 0.865479 33.8562 0.865479C29.7641 0.865479 26.8824 2.88825 26.8647 5.7802C26.8307 7.91387 28.9279 9.09896 30.4964 9.8104C32.0996 10.5374 32.6446 11.0119 32.6446 11.6599C32.6283 12.6551 31.3491 13.1138 30.1561 13.1138C28.5017 13.1138 27.6152 12.8773 26.2681 12.3236L25.7224 12.0863L25.1426 15.421C26.1145 15.8314 27.905 16.1957 29.7641 16.2116C34.1121 16.2116 36.9427 14.2202 36.9763 11.1383C36.9928 9.44723 35.8854 8.15144 33.498 7.09258C32.0486 6.41286 31.1611 5.95454 31.1611 5.25907C31.178 4.62682 31.9118 3.97924 33.5478 3.97924C34.895 3.94752 35.8847 4.24768 36.6346 4.54805L37.0093 4.7058L37.5729 1.49794Z" fill="#00579F"/>
<path d="M43.0801 10.7275C43.4214 9.87405 44.7345 6.57103 44.7345 6.57103C44.7173 6.60275 45.0751 5.70185 45.2797 5.14879L45.5693 6.42883C45.5693 6.42883 46.354 9.98474 46.5244 10.7275C45.8768 10.7275 43.8986 10.7275 43.0801 10.7275ZM48.1951 1.13477H44.9899C44.0015 1.13477 43.2505 1.40321 42.8241 2.36733L36.6689 15.99H41.0169C41.0169 15.99 41.7328 14.1565 41.8866 13.7616C42.3636 13.7616 46.5933 13.7616 47.2069 13.7616C47.3259 14.2832 47.7014 15.99 47.7014 15.99H51.5382L48.1951 1.13477Z" fill="#00579F"/>
<path d="M14.9456 1.13477L10.8874 11.2648L10.4439 9.21029C9.69368 6.83969 7.34067 4.26407 4.71484 2.9834L8.43198 15.9745H12.814L19.3273 1.13477H14.9456Z" fill="#00579F"/>
<path d="M7.11997 1.13379H0.452972L0.384766 1.43395C5.58544 2.66672 9.02975 5.63828 10.4449 9.20995L8.99553 2.38253C8.75692 1.43374 8.02365 1.16509 7.11997 1.13379Z" fill="#FAA61A"/>
</svg>
